<?xml version="1.0" standalone="no"?>
<!DOCTYPE svg PUBLIC "-//W3C//DTD SVG 20010904//EN"
 "http://www.w3.org/TR/2001/REC-SVG-20010904/DTD/svg10.dtd">
<svg version="1.0" xmlns="http://www.w3.org/2000/svg"
 width="200.000000pt" height="200.000000pt" viewBox="0 0 200.000000 200.000000"
 preserveAspectRatio="xMidYMid meet">

<g transform="translate(0.000000,200.000000) scale(0.100000,-0.100000)"
fill="#000000" stroke="none">
<path d="M977 1399 l-257 -231 0 -114 c0 -63 2 -114 5 -114 3 0 117 101 254
225 l249 225 4 118 c2 64 3 118 2 119 0 2 -116 -101 -257 -228z"/>
<path d="M1317 1398 l-257 -231 0 -120 0 -119 29 25 c16 13 133 117 260 232
l231 208 0 118 c0 66 -1 119 -3 119 -1 0 -118 -104 -260 -232z"/>
<path d="M100 530 l0 -160 119 0 c112 0 122 2 147 24 39 33 39 90 1 120 l-28
22 21 19 c25 22 26 65 3 94 -23 28 -78 40 -180 41 l-83 0 0 -160z m198 86 c19
-19 7 -52 -21 -60 -12 -3 -41 -6 -64 -6 l-43 0 0 38 c0 21 3 42 8 46 11 12
104 -2 120 -18z m16 -132 c20 -19 20 -29 0 -48 -11 -11 -35 -16 -80 -16 l-64
0 0 40 0 40 64 0 c45 0 69 -5 80 -16z"/>
<path d="M1190 660 c0 -30 1 -30 55 -30 l55 0 0 -93 c0 -59 -4 -97 -12 -105
-17 -17 -63 -15 -78 3 -12 14 -15 14 -31 -1 -28 -25 -23 -40 17 -59 52 -25
121 -16 151 20 21 24 23 35 23 161 l0 134 -90 0 -90 0 0 -30z"/>
<path d="M1750 640 c0 -23 -4 -30 -20 -30 -16 0 -20 -7 -20 -30 0 -23 4 -30
20 -30 18 0 20 -7 20 -59 0 -33 4 -71 9 -84 12 -31 61 -51 105 -43 31 6 34 9
27 29 -5 12 -17 22 -28 23 -36 2 -43 14 -43 75 0 59 0 59 30 59 27 0 30 3 30
30 0 27 -3 30 -30 30 -27 0 -30 3 -30 30 0 28 -3 30 -35 30 -32 0 -35 -2 -35
-30z"/>
<path d="M504 600 c-40 -16 -64 -59 -64 -112 0 -43 5 -55 33 -83 77 -77 216
-41 227 60 6 54 -2 79 -34 111 -30 30 -40 34 -87 33 -30 0 -64 -4 -75 -9z
m115 -66 c24 -31 26 -43 9 -79 -22 -48 -97 -46 -117 3 -31 75 59 138 108 76z"/>
<path d="M798 592 c-56 -34 -73 -112 -38 -170 49 -80 181 -80 230 0 37 61 18
143 -40 173 -39 20 -118 19 -152 -3z m122 -52 c24 -24 26 -77 3 -102 -23 -26
-78 -24 -97 4 -34 49 -5 118 49 118 14 0 34 -9 45 -20z"/>
<path d="M1484 591 c-64 -39 -72 -142 -15 -193 49 -44 159 -47 185 -6 15 24
-10 51 -34 38 -30 -16 -85 -12 -103 8 -10 10 -17 22 -17 25 0 4 43 7 95 7 90
0 95 1 95 21 0 36 -31 89 -61 104 -39 21 -108 19 -145 -4z m124 -43 c27 -27
13 -38 -48 -38 -64 0 -66 1 -50 31 12 22 78 27 98 7z"/>
</g>
</svg>
